<?xml version="1.0" encoding="iso-8859-1"?>
<!-- Uploaded to: SVG Repo, www.svgrepo.com, Generator: SVG Repo Mixer Tools -->
<svg fill="currentColor" height="800px" width="800px" version="1.1" id="Layer_1" xmlns="http://www.w3.org/2000/svg" xmlns:xlink="http://www.w3.org/1999/xlink" 
	 viewBox="0 0 501.994 501.994" xml:space="preserve">
<g>
	<g>
		<g>
			<path d="M466.791,325.009c-0.171-0.033-0.342-0.063-0.515-0.087l-70.498-10.088c-0.283-0.041-0.568-0.069-0.854-0.085
				c-10.811-0.609-21.763-0.474-32.555,0.401c-0.152,0.012-0.305,0.028-0.457,0.048L209.8,334.605
				c-19.198,1.22-34.375,16.2-36.398,34.776l-122.77-37.825c-20.612-6.347-42.545,5.254-48.894,25.863
				c-6.35,20.61,5.252,42.544,25.862,48.895c0.035,0.011,0.069,0.021,0.104,0.031l116.348,34.468c20.898,6.191,42.279,9.3,63.84,9.3
				c8.601,0,17.231-0.495,25.869-1.486L384.9,431.282c0.144-0.016,0.288-0.036,0.431-0.059c7.923-1.261,15.96-1.257,23.884,0.011
				l47.258,7.561c2.141,0.342,4.267,0.508,6.368,0.508c19.113-0.002,35.951-13.72,39.028-32.95c0.083-0.522,0.125-1.051,0.125-1.58
				v-40.84C501.998,344.497,488.179,329.218,466.791,325.009z M481.999,403.891L481.999,403.891
				c-1.989,9.907-12.061,16.8-22.364,15.156l-47.257-7.561c-9.941-1.59-20.022-1.606-29.965-0.048l-150.929,17.32
				c-27.603,3.17-55.108,0.772-81.748-7.12l-116.29-34.45c-10.042-3.122-15.69-13.822-12.592-23.879
				c3.102-10.07,13.821-15.742,23.892-12.638l133.085,41.003c6.634,12.243,19.58,20.492,34.373,20.492
				c0.702,0,2.603-0.092,2.845-0.123l61.135-7.774c5.479-0.697,9.355-5.703,8.658-11.182c-0.697-5.478-5.701-9.358-11.182-8.658
				l-60.735,7.724c-10.273,0.367-18.886-7.409-19.723-17.518c-0.266-5.088,1.461-9.977,4.867-13.767
				c3.411-3.798,8.098-6.04,13.195-6.313c0.245-0.013,0.488-0.035,0.731-0.066l152.219-19.42c9.667-0.774,19.476-0.899,29.162-0.373
				l69.795,9.988c11.794,2.399,18.828,9.583,18.828,19.253V403.891z"/>
			<path d="M314.419,379.245l-13.586,1.728c-5.479,0.696-9.355,5.703-8.659,11.181c0.642,5.051,4.946,8.74,9.907,8.74
				c0.42,0,0.846-0.026,1.274-0.081l13.586-1.728c5.479-0.696,9.355-5.703,8.659-11.181
				C324.903,382.425,319.891,378.547,314.419,379.245z"/>
			<path d="M165.895,223.773c4.247,4.082,8.259,7.938,11.982,11.661c33.022,33.021,66.032,63.331,66.361,63.634
				c1.913,1.754,4.336,2.63,6.76,2.63c2.431,0,4.863-0.882,6.777-2.646c0.348-0.32,35.12-32.394,66.345-63.618
				c3.723-3.723,7.734-7.579,11.981-11.661c26.401-25.376,59.259-56.958,59.259-93.581c0-43.181-35.13-78.312-78.312-78.312
				c-27.272,0-51.956,14.124-66.05,36.212c-14.095-22.088-38.778-36.212-66.05-36.212c-43.182,0-78.312,35.131-78.312,78.312
				C106.636,166.815,139.494,198.397,165.895,223.773z M184.948,71.881c26.458,0,49.642,17.846,56.381,43.398
				c1.158,4.391,5.129,7.45,9.669,7.45c4.54,0,8.511-3.059,9.669-7.45c6.739-25.552,29.923-43.398,56.381-43.398
				c32.153,0,58.312,26.159,58.312,58.312c0,28.105-29.453,56.414-53.119,79.161c-4.321,4.153-8.401,8.075-12.264,11.938
				c-22.733,22.732-47.384,45.938-58.99,56.768c-11.304-10.523-35.135-32.935-58.968-56.767c-3.863-3.863-7.944-7.786-12.265-11.938
				c-23.666-22.747-53.119-51.056-53.119-79.161C126.636,98.039,152.794,71.881,184.948,71.881z"/>
			<path d="M326.182,182.75c2.535,0,5.071-0.958,7.02-2.878l9.765-9.625c3.933-3.877,3.979-10.208,0.102-14.142
				c-3.877-3.934-10.209-3.979-14.142-0.102l-9.766,9.625c-3.933,3.877-3.979,10.208-0.102,14.142
				C321.017,181.756,323.599,182.75,326.182,182.75z"/>
			<path d="M259.998,247.988c2.535,0,5.072-0.958,7.02-2.878l31.862-31.407c3.933-3.877,3.979-10.208,0.102-14.142
				c-3.877-3.934-10.209-3.98-14.142-0.102l-31.862,31.407c-3.933,3.877-3.979,10.208-0.102,14.142
				C254.833,246.994,257.415,247.988,259.998,247.988z"/>
		</g>
	</g>
</g>
</svg>